<svg width="1440" height="4247" viewBox="0 0 1440 4247" fill="none" xmlns="http://www.w3.org/2000/svg">
<rect width="1440" height="4247" fill="url(#paint0_linear_16_721)"/>
<g style="mix-blend-mode:soft-light" opacity="0.5">
<circle cx="42.5" cy="42.5" r="40" transform="matrix(-1 0 0 1 1370 1326)" stroke="white" stroke-width="5"/>
</g>
<g style="mix-blend-mode:soft-light" opacity="0.5">
<circle cx="47.5" cy="47.5" r="45" transform="matrix(-1 0 0 1 1051 1709)" stroke="white" stroke-width="5"/>
</g>
<g style="mix-blend-mode:soft-light" opacity="0.5">
<circle cx="16" cy="16" r="13.5" transform="matrix(-1 0 0 1 1268 1411)" stroke="white" stroke-width="5"/>
</g>
<g style="mix-blend-mode:soft-light" opacity="0.5">
<circle cx="16" cy="16" r="13.5" transform="matrix(-1 0 0 1 1180 1804)" stroke="white" stroke-width="5"/>
</g>
<g style="mix-blend-mode:soft-light" opacity="0.5">
<circle cx="16" cy="16" r="13.5" transform="matrix(-1 0 0 1 298 1130)" stroke="white" stroke-width="5"/>
</g>
<g style="mix-blend-mode:soft-light" opacity="0.5">
<circle cx="16" cy="16" r="13.5" transform="matrix(-1 0 0 1 266 1704)" stroke="white" stroke-width="5"/>
</g>
<g style="mix-blend-mode:soft-light" opacity="0.5">
<circle cx="28.5" cy="28.5" r="26" transform="matrix(-1 0 0 1 81 1147)" stroke="white" stroke-width="5"/>
</g>
<g style="mix-blend-mode:soft-light" opacity="0.5">
<circle cx="42.5" cy="42.5" r="40" transform="matrix(-1 0 0 1 211 1162)" stroke="white" stroke-width="5"/>
</g>
<g style="mix-blend-mode:soft-light" opacity="0.5">
<circle cx="42.5" cy="42.5" r="40" transform="matrix(-1 0 0 1 362 1778)" stroke="white" stroke-width="5"/>
</g>
<g style="mix-blend-mode:hard-light" opacity="0.8">
<path fill-rule="evenodd" clip-rule="evenodd" d="M79.4564 1810.65C85.4455 1814.94 101.902 1825.26 116.119 1820.83C133.869 1815.29 144.364 1798.32 141.405 1788.84C138.446 1779.35 120.163 1771.37 102.412 1776.91C88.2964 1781.31 80.64 1798.94 78.0965 1805.98C76.3061 1803.34 72.7685 1799.13 67.9006 1798.09C60.6747 1796.53 53.2538 1802.52 53.2538 1802.52C53.2538 1802.52 57.5917 1810.84 64.8176 1812.4C65.437 1812.53 66.0576 1812.61 66.6745 1812.64C66.0711 1813.14 65.5071 1813.7 65.0009 1814.32C60.3497 1820.07 62.3479 1829.39 62.3479 1829.39C62.3479 1829.39 71.7268 1829.28 76.378 1823.53C79.6611 1819.48 79.711 1813.7 79.4564 1810.65Z" fill="#97D9CD"/>
</g>
<g style="mix-blend-mode:hard-light" opacity="0.7">
<path fill-rule="evenodd" clip-rule="evenodd" d="M404.589 1622.42C407.75 1629.07 417.14 1646.08 431.725 1649.09C449.936 1652.85 467.341 1643.09 469.349 1633.37C471.357 1623.64 459.237 1607.79 441.027 1604.03C426.545 1601.04 411.302 1612.75 405.667 1617.67C405.379 1614.5 404.324 1609.1 400.575 1605.82C395.01 1600.96 385.613 1602.6 385.613 1602.6C385.613 1602.6 385.376 1611.98 390.941 1616.85C391.418 1617.26 391.923 1617.63 392.446 1617.96C391.678 1618.1 390.914 1618.32 390.168 1618.62C383.315 1621.39 380.541 1630.51 380.541 1630.51C380.541 1630.51 388.801 1634.96 395.654 1632.19C400.491 1630.23 403.335 1625.21 404.589 1622.42Z" fill="#97D9CD"/>
</g>
<g style="mix-blend-mode:hard-light" opacity="0.8">
<path fill-rule="evenodd" clip-rule="evenodd" d="M1244.59 1240.42C1247.75 1247.07 1257.14 1264.08 1271.73 1267.09C1289.94 1270.85 1307.34 1261.09 1309.35 1251.37C1311.36 1241.64 1299.24 1225.79 1281.03 1222.03C1266.54 1219.04 1251.3 1230.75 1245.67 1235.67C1245.38 1232.5 1244.32 1227.1 1240.57 1223.82C1235.01 1218.96 1225.61 1220.6 1225.61 1220.6C1225.61 1220.6 1225.38 1229.98 1230.94 1234.85C1231.42 1235.26 1231.92 1235.63 1232.45 1235.96C1231.68 1236.1 1230.91 1236.32 1230.17 1236.62C1223.32 1239.39 1220.54 1248.51 1220.54 1248.51C1220.54 1248.51 1228.8 1252.96 1235.65 1250.19C1240.49 1248.23 1243.33 1243.21 1244.59 1240.42Z" fill="#97D9CD"/>
</g>
<g style="mix-blend-mode:hard-light" opacity="0.8">
<path fill-rule="evenodd" clip-rule="evenodd" d="M1010.72 1417.91C1018.07 1418.41 1037.49 1418.54 1047.25 1407.29C1059.44 1393.25 1059.46 1373.3 1051.96 1366.79C1044.46 1360.28 1024.7 1363.09 1012.51 1377.13C1002.82 1388.3 1005.57 1407.32 1007.1 1414.64C1004.2 1413.34 998.974 1411.62 994.282 1413.29C987.316 1415.76 984.152 1424.76 984.152 1424.76C984.152 1424.76 992.214 1429.56 999.179 1427.08C999.776 1426.87 1000.35 1426.61 1000.89 1426.32C1000.64 1427.06 1000.45 1427.83 1000.35 1428.62C999.409 1435.96 1006.01 1442.84 1006.01 1442.84C1006.01 1442.84 1013.93 1437.81 1014.87 1430.48C1015.53 1425.31 1012.54 1420.37 1010.72 1417.91Z" fill="#97D9CD"/>
</g>
<g style="mix-blend-mode:hard-light" opacity="0.3">
<path fill-rule="evenodd" clip-rule="evenodd" d="M1116.5 1393.66C1120.37 1396.26 1130.96 1402.49 1139.86 1399.43C1150.98 1395.61 1157.32 1384.7 1155.27 1378.76C1153.23 1372.82 1141.53 1368.1 1130.41 1371.92C1121.57 1374.95 1117.04 1386.24 1115.56 1390.73C1114.38 1389.09 1112.07 1386.5 1108.97 1385.92C1104.38 1385.07 1099.8 1388.99 1099.8 1388.99C1099.8 1388.99 1102.69 1394.17 1107.28 1395.02C1107.68 1395.1 1108.07 1395.14 1108.46 1395.15C1108.09 1395.47 1107.74 1395.83 1107.43 1396.24C1104.6 1399.95 1106.03 1405.81 1106.03 1405.81C1106.03 1405.81 1111.95 1405.57 1114.79 1401.86C1116.79 1399.23 1116.72 1395.58 1116.5 1393.66Z" fill="#97D9CD"/>
</g>
<g style="mix-blend-mode:hard-light" opacity="0.5">
<path fill-rule="evenodd" clip-rule="evenodd" d="M187.298 1729.11C191.127 1729.63 201.291 1730.38 206.793 1724.83C213.662 1717.9 214.363 1707.46 210.664 1703.79C206.964 1700.12 196.527 1700.91 189.657 1707.83C184.194 1713.34 184.972 1723.39 185.519 1727.28C184.043 1726.5 181.37 1725.41 178.855 1726.12C175.123 1727.17 173.154 1731.77 173.154 1731.77C173.154 1731.77 177.206 1734.57 180.939 1733.51C181.259 1733.42 181.566 1733.31 181.86 1733.17C181.702 1733.55 181.577 1733.95 181.496 1734.36C180.75 1738.17 183.966 1742 183.966 1742C183.966 1742 188.286 1739.64 189.032 1735.84C189.559 1733.15 188.164 1730.46 187.298 1729.11Z" fill="#97D9CD"/>
</g>
<g style="mix-blend-mode:hard-light" opacity="0.5">
<path fill-rule="evenodd" clip-rule="evenodd" d="M1114.51 1282.98C1118.2 1281.82 1127.72 1278.18 1130.34 1270.82C1133.62 1261.64 1129.82 1251.88 1124.91 1250.13C1120.01 1248.38 1110.89 1253.52 1107.61 1262.71C1105 1270.02 1109.98 1278.79 1112.12 1282.08C1110.45 1281.99 1107.57 1282.15 1105.6 1283.86C1102.67 1286.4 1102.84 1291.4 1102.84 1291.4C1102.84 1291.4 1107.69 1292.2 1110.62 1289.67C1110.87 1289.45 1111.1 1289.21 1111.31 1288.97C1111.33 1289.37 1111.38 1289.79 1111.49 1290.2C1112.43 1293.96 1116.97 1296.06 1116.97 1296.06C1116.97 1296.06 1119.88 1292.1 1118.94 1288.33C1118.27 1285.68 1115.87 1283.84 1114.51 1282.98Z" fill="#97D9CD"/>
</g>
<g style="mix-blend-mode:soft-light" opacity="0.5">
<circle cx="42.5" cy="42.5" r="40" transform="matrix(-1 0 0 1 1370 3442)" stroke="white" stroke-width="5"/>
</g>
<g style="mix-blend-mode:soft-light" opacity="0.5">
<circle cx="47.5" cy="47.5" r="45" transform="matrix(-1 0 0 1 1051 3825)" stroke="white" stroke-width="5"/>
</g>
<g style="mix-blend-mode:soft-light" opacity="0.5">
<circle cx="16" cy="16" r="13.5" transform="matrix(-1 0 0 1 1268 3527)" stroke="white" stroke-width="5"/>
</g>
<g style="mix-blend-mode:soft-light" opacity="0.5">
<circle cx="16" cy="16" r="13.5" transform="matrix(-1 0 0 1 1180 3920)" stroke="white" stroke-width="5"/>
</g>
<g style="mix-blend-mode:soft-light" opacity="0.5">
<circle cx="16" cy="16" r="13.5" transform="matrix(-1 0 0 1 298 3246)" stroke="white" stroke-width="5"/>
</g>
<g style="mix-blend-mode:soft-light" opacity="0.5">
<circle cx="16" cy="16" r="13.5" transform="matrix(-1 0 0 1 266 3820)" stroke="white" stroke-width="5"/>
</g>
<g style="mix-blend-mode:soft-light" opacity="0.5">
<circle cx="28.5" cy="28.5" r="26" transform="matrix(-1 0 0 1 81 3263)" stroke="white" stroke-width="5"/>
</g>
<g style="mix-blend-mode:soft-light" opacity="0.5">
<circle cx="42.5" cy="42.5" r="40" transform="matrix(-1 0 0 1 211 3278)" stroke="white" stroke-width="5"/>
</g>
<g style="mix-blend-mode:soft-light" opacity="0.5">
<circle cx="42.5" cy="42.5" r="40" transform="matrix(-1 0 0 1 362 3894)" stroke="white" stroke-width="5"/>
</g>
<g style="mix-blend-mode:hard-light" opacity="0.8">
<path fill-rule="evenodd" clip-rule="evenodd" d="M79.4564 3926.65C85.4455 3930.94 101.902 3941.26 116.119 3936.83C133.869 3931.29 144.364 3914.32 141.405 3904.84C138.446 3895.35 120.163 3887.37 102.412 3892.91C88.2964 3897.31 80.64 3914.94 78.0965 3921.98C76.3061 3919.34 72.7685 3915.13 67.9006 3914.09C60.6747 3912.53 53.2538 3918.52 53.2538 3918.52C53.2538 3918.52 57.5917 3926.84 64.8176 3928.4C65.437 3928.53 66.0576 3928.61 66.6745 3928.64C66.0711 3929.14 65.5071 3929.7 65.0009 3930.32C60.3497 3936.07 62.3479 3945.39 62.3479 3945.39C62.3479 3945.39 71.7268 3945.28 76.378 3939.53C79.6611 3935.48 79.711 3929.7 79.4564 3926.65Z" fill="#97D9CD"/>
</g>
<g style="mix-blend-mode:hard-light" opacity="0.7">
<path fill-rule="evenodd" clip-rule="evenodd" d="M404.589 3738.42C407.75 3745.07 417.14 3762.08 431.725 3765.09C449.936 3768.85 467.341 3759.09 469.349 3749.37C471.357 3739.64 459.237 3723.79 441.027 3720.03C426.545 3717.04 411.302 3728.75 405.667 3733.67C405.379 3730.5 404.324 3725.1 400.575 3721.82C395.01 3716.96 385.613 3718.6 385.613 3718.6C385.613 3718.6 385.376 3727.98 390.941 3732.85C391.418 3733.26 391.923 3733.63 392.446 3733.96C391.678 3734.1 390.914 3734.32 390.168 3734.62C383.315 3737.39 380.541 3746.51 380.541 3746.51C380.541 3746.51 388.801 3750.96 395.654 3748.19C400.491 3746.23 403.335 3741.21 404.589 3738.42Z" fill="#97D9CD"/>
</g>
<g style="mix-blend-mode:hard-light" opacity="0.8">
<path fill-rule="evenodd" clip-rule="evenodd" d="M1244.59 3356.42C1247.75 3363.07 1257.14 3380.08 1271.73 3383.09C1289.94 3386.85 1307.34 3377.09 1309.35 3367.37C1311.36 3357.64 1299.24 3341.79 1281.03 3338.03C1266.54 3335.04 1251.3 3346.75 1245.67 3351.67C1245.38 3348.5 1244.32 3343.1 1240.57 3339.82C1235.01 3334.96 1225.61 3336.6 1225.61 3336.6C1225.61 3336.6 1225.38 3345.98 1230.94 3350.85C1231.42 3351.26 1231.92 3351.63 1232.45 3351.96C1231.68 3352.1 1230.91 3352.32 1230.17 3352.62C1223.32 3355.39 1220.54 3364.51 1220.54 3364.51C1220.54 3364.51 1228.8 3368.96 1235.65 3366.19C1240.49 3364.23 1243.33 3359.21 1244.59 3356.42Z" fill="#97D9CD"/>
</g>
<g style="mix-blend-mode:hard-light" opacity="0.8">
<path fill-rule="evenodd" clip-rule="evenodd" d="M1010.72 3533.91C1018.07 3534.41 1037.49 3534.54 1047.25 3523.29C1059.44 3509.25 1059.46 3489.3 1051.96 3482.79C1044.46 3476.28 1024.7 3479.09 1012.51 3493.13C1002.82 3504.3 1005.57 3523.32 1007.1 3530.64C1004.2 3529.34 998.974 3527.62 994.282 3529.29C987.316 3531.76 984.152 3540.76 984.152 3540.76C984.152 3540.76 992.214 3545.56 999.179 3543.08C999.776 3542.87 1000.35 3542.61 1000.89 3542.32C1000.64 3543.06 1000.45 3543.83 1000.35 3544.62C999.409 3551.96 1006.01 3558.84 1006.01 3558.84C1006.01 3558.84 1013.93 3553.81 1014.87 3546.48C1015.53 3541.31 1012.54 3536.37 1010.72 3533.91Z" fill="#97D9CD"/>
</g>
<g style="mix-blend-mode:hard-light" opacity="0.3">
<path fill-rule="evenodd" clip-rule="evenodd" d="M1116.5 3509.66C1120.37 3512.26 1130.96 3518.49 1139.86 3515.43C1150.98 3511.61 1157.32 3500.7 1155.27 3494.76C1153.23 3488.82 1141.53 3484.1 1130.41 3487.92C1121.57 3490.95 1117.04 3502.24 1115.56 3506.73C1114.38 3505.09 1112.07 3502.5 1108.97 3501.92C1104.38 3501.07 1099.8 3504.99 1099.8 3504.99C1099.8 3504.99 1102.69 3510.17 1107.28 3511.02C1107.68 3511.1 1108.07 3511.14 1108.46 3511.15C1108.09 3511.47 1107.74 3511.83 1107.43 3512.24C1104.6 3515.95 1106.03 3521.81 1106.03 3521.81C1106.03 3521.81 1111.95 3521.57 1114.79 3517.86C1116.79 3515.23 1116.72 3511.58 1116.5 3509.66Z" fill="#97D9CD"/>
</g>
<g style="mix-blend-mode:hard-light" opacity="0.5">
<path fill-rule="evenodd" clip-rule="evenodd" d="M187.298 3845.11C191.127 3845.63 201.291 3846.38 206.793 3840.83C213.662 3833.9 214.363 3823.46 210.664 3819.79C206.964 3816.12 196.527 3816.91 189.657 3823.83C184.194 3829.34 184.972 3839.39 185.519 3843.28C184.043 3842.5 181.37 3841.41 178.855 3842.12C175.123 3843.17 173.154 3847.77 173.154 3847.77C173.154 3847.77 177.206 3850.57 180.939 3849.51C181.259 3849.42 181.566 3849.31 181.86 3849.17C181.702 3849.55 181.577 3849.95 181.496 3850.36C180.75 3854.17 183.966 3858 183.966 3858C183.966 3858 188.286 3855.64 189.032 3851.84C189.559 3849.15 188.164 3846.46 187.298 3845.11Z" fill="#97D9CD"/>
</g>
<g style="mix-blend-mode:hard-light" opacity="0.5">
<path fill-rule="evenodd" clip-rule="evenodd" d="M1114.51 3398.98C1118.2 3397.82 1127.72 3394.18 1130.34 3386.82C1133.62 3377.64 1129.82 3367.88 1124.91 3366.13C1120.01 3364.38 1110.89 3369.52 1107.61 3378.71C1105 3386.02 1109.98 3394.79 1112.12 3398.08C1110.45 3397.99 1107.57 3398.15 1105.6 3399.86C1102.67 3402.4 1102.84 3407.4 1102.84 3407.4C1102.84 3407.4 1107.69 3408.2 1110.62 3405.67C1110.87 3405.45 1111.1 3405.21 1111.31 3404.97C1111.33 3405.37 1111.38 3405.79 1111.49 3406.2C1112.43 3409.96 1116.97 3412.06 1116.97 3412.06C1116.97 3412.06 1119.88 3408.1 1118.94 3404.33C1118.27 3401.68 1115.87 3399.84 1114.51 3398.98Z" fill="#97D9CD"/>
</g>
<g style="mix-blend-mode:soft-light" opacity="0.5">
<circle cx="66.5" cy="441.5" r="40" stroke="white" stroke-width="5"/>
</g>
<g style="mix-blend-mode:soft-light" opacity="0.5">
<circle cx="390.5" cy="829.5" r="45" stroke="white" stroke-width="5"/>
</g>
<g style="mix-blend-mode:soft-light" opacity="0.5">
<circle cx="142" cy="500" r="13.5" stroke="white" stroke-width="5"/>
</g>
<g style="mix-blend-mode:soft-light" opacity="0.5">
<circle cx="230" cy="893" r="13.5" stroke="white" stroke-width="5"/>
</g>
<g style="mix-blend-mode:soft-light" opacity="0.5">
<circle cx="1112" cy="219" r="13.5" stroke="white" stroke-width="5"/>
</g>
<g style="mix-blend-mode:soft-light" opacity="0.5">
<circle cx="1144" cy="793" r="13.5" stroke="white" stroke-width="5"/>
</g>
<g style="mix-blend-mode:soft-light" opacity="0.5">
<circle cx="1341.5" cy="248.5" r="26" stroke="white" stroke-width="5"/>
</g>
<g style="mix-blend-mode:soft-light" opacity="0.5">
<circle cx="1225.5" cy="277.5" r="40" stroke="white" stroke-width="5"/>
</g>
<g style="mix-blend-mode:soft-light" opacity="0.5">
<circle cx="1074.5" cy="893.5" r="40" stroke="white" stroke-width="5"/>
</g>
<g style="mix-blend-mode:hard-light" opacity="0.8">
<path fill-rule="evenodd" clip-rule="evenodd" d="M1314.54 883.655C1308.55 887.94 1292.1 898.262 1277.88 893.825C1260.13 888.286 1249.64 871.318 1252.59 861.836C1255.55 852.354 1273.84 844.368 1291.59 849.908C1305.7 854.313 1313.36 871.942 1315.9 878.977C1317.69 876.342 1321.23 872.134 1326.1 871.085C1333.33 869.529 1340.75 875.523 1340.75 875.523C1340.75 875.523 1336.41 883.839 1329.18 885.396C1328.56 885.529 1327.94 885.609 1327.33 885.642C1327.93 886.138 1328.49 886.695 1329 887.321C1333.65 893.066 1331.65 902.393 1331.65 902.393C1331.65 902.393 1322.27 902.277 1317.62 896.532C1314.34 892.477 1314.29 886.701 1314.54 883.655Z" fill="#97D9CD"/>
</g>
<g style="mix-blend-mode:hard-light" opacity="0.7">
<path fill-rule="evenodd" clip-rule="evenodd" d="M989.411 695.419C986.25 702.071 976.86 719.076 962.275 722.087C944.064 725.847 926.659 716.094 924.651 706.366C922.643 696.638 934.763 680.79 952.973 677.03C967.455 674.041 982.698 685.749 988.333 690.668C988.621 687.496 989.676 682.101 993.425 678.823C998.99 673.959 1008.39 675.604 1008.39 675.604C1008.39 675.604 1008.62 684.981 1003.06 689.845C1002.58 690.262 1002.08 690.633 1001.55 690.961C1002.32 691.103 1003.09 691.316 1003.83 691.618C1010.68 694.388 1013.46 703.515 1013.46 703.515C1013.46 703.515 1005.2 707.96 998.346 705.19C993.509 703.234 990.665 698.207 989.411 695.419Z" fill="#97D9CD"/>
</g>
<g style="mix-blend-mode:hard-light" opacity="0.8">
<path fill-rule="evenodd" clip-rule="evenodd" d="M149.411 313.419C146.25 320.071 136.86 337.076 122.275 340.087C104.064 343.847 86.6592 334.094 84.6508 324.366C82.6425 314.638 94.7626 298.79 112.973 295.03C127.455 292.041 142.698 303.749 148.333 308.668C148.621 305.496 149.676 300.101 153.425 296.823C158.99 291.959 168.387 293.604 168.387 293.604C168.387 293.604 168.624 302.981 163.059 307.845C162.582 308.262 162.077 308.633 161.554 308.961C162.322 309.103 163.086 309.316 163.832 309.618C170.685 312.388 173.459 321.515 173.459 321.515C173.459 321.515 165.199 325.96 158.346 323.19C153.509 321.234 150.665 316.207 149.411 313.419Z" fill="#97D9CD"/>
</g>
<g style="mix-blend-mode:hard-light" opacity="0.8">
<path fill-rule="evenodd" clip-rule="evenodd" d="M383.281 490.909C375.934 491.407 356.509 491.54 346.745 480.294C334.555 466.253 334.543 446.302 342.044 439.79C349.545 433.278 369.297 436.092 381.487 450.134C391.181 461.3 388.43 480.322 386.897 487.644C389.805 486.343 395.026 484.622 399.718 486.288C406.684 488.761 409.848 497.761 409.848 497.761C409.848 497.761 401.786 502.556 394.821 500.083C394.224 499.871 393.654 499.613 393.111 499.317C393.364 500.057 393.551 500.827 393.653 501.625C394.591 508.957 387.989 515.842 387.989 515.842C387.989 515.842 380.071 510.814 379.133 503.482C378.471 498.307 381.464 493.367 383.281 490.909Z" fill="#97D9CD"/>
</g>
<g style="mix-blend-mode:hard-light" opacity="0.3">
<path fill-rule="evenodd" clip-rule="evenodd" d="M277.495 466.661C273.633 469.263 263.045 475.493 254.137 472.433C243.016 468.613 236.685 457.7 238.726 451.758C240.766 445.817 252.467 441.097 263.588 444.916C272.433 447.954 276.957 459.236 278.439 463.728C279.618 462.095 281.929 459.498 285.025 458.922C289.621 458.068 294.205 461.989 294.205 461.989C294.205 461.989 291.314 467.169 286.718 468.024C286.324 468.097 285.93 468.136 285.54 468.146C285.912 468.471 286.259 468.833 286.568 469.237C289.405 472.952 287.975 478.813 287.975 478.813C287.975 478.813 282.048 478.571 279.211 474.856C277.208 472.234 277.28 468.582 277.495 466.661Z" fill="#97D9CD"/>
</g>
<g style="mix-blend-mode:hard-light" opacity="0.5">
<path fill-rule="evenodd" clip-rule="evenodd" d="M1206.7 802.113C1202.87 802.629 1192.71 803.375 1187.21 797.828C1180.34 790.903 1179.64 780.46 1183.34 776.79C1187.04 773.12 1197.47 773.905 1204.34 780.831C1209.81 786.339 1209.03 796.392 1208.48 800.278C1209.96 799.496 1212.63 798.413 1215.14 799.122C1218.88 800.174 1220.85 804.774 1220.85 804.774C1220.85 804.774 1216.79 807.565 1213.06 806.513C1212.74 806.423 1212.43 806.308 1212.14 806.172C1212.3 806.55 1212.42 806.947 1212.5 807.361C1213.25 811.166 1210.03 815 1210.03 815C1210.03 815 1205.71 812.644 1204.97 808.839C1204.44 806.153 1205.84 803.463 1206.7 802.113Z" fill="#97D9CD"/>
</g>
<g style="mix-blend-mode:hard-light" opacity="0.5">
<path fill-rule="evenodd" clip-rule="evenodd" d="M279.488 355.981C275.802 354.823 266.284 351.183 263.658 343.825C260.379 334.637 264.178 324.885 269.086 323.133C273.994 321.381 283.11 326.524 286.389 335.712C288.997 343.018 284.024 351.789 281.878 355.075C283.547 354.994 286.427 355.149 288.402 356.858C291.335 359.395 291.164 364.397 291.164 364.397C291.164 364.397 286.31 365.203 283.378 362.666C283.126 362.448 282.897 362.213 282.688 361.965C282.671 362.375 282.615 362.787 282.513 363.196C281.573 366.958 277.033 369.064 277.033 369.064C277.033 369.064 274.123 365.096 275.063 361.334C275.726 358.679 278.131 356.836 279.488 355.981Z" fill="#97D9CD"/>
</g>
<g style="mix-blend-mode:soft-light" opacity="0.5">
<circle cx="66.5" cy="2342.5" r="40" stroke="white" stroke-width="5"/>
</g>
<g style="mix-blend-mode:soft-light" opacity="0.5">
<circle cx="390.5" cy="2730.5" r="45" stroke="white" stroke-width="5"/>
</g>
<g style="mix-blend-mode:soft-light" opacity="0.5">
<circle cx="142" cy="2401" r="13.5" stroke="white" stroke-width="5"/>
</g>
<g style="mix-blend-mode:soft-light" opacity="0.5">
<circle cx="230" cy="2794" r="13.5" stroke="white" stroke-width="5"/>
</g>
<g style="mix-blend-mode:soft-light" opacity="0.5">
<circle cx="1112" cy="2120" r="13.5" stroke="white" stroke-width="5"/>
</g>
<g style="mix-blend-mode:soft-light" opacity="0.5">
<circle cx="1144" cy="2694" r="13.5" stroke="white" stroke-width="5"/>
</g>
<g style="mix-blend-mode:soft-light" opacity="0.5">
<circle cx="1341.5" cy="2149.5" r="26" stroke="white" stroke-width="5"/>
</g>
<g style="mix-blend-mode:soft-light" opacity="0.5">
<circle cx="1225.5" cy="2178.5" r="40" stroke="white" stroke-width="5"/>
</g>
<g style="mix-blend-mode:soft-light" opacity="0.5">
<circle cx="1074.5" cy="2794.5" r="40" stroke="white" stroke-width="5"/>
</g>
<g style="mix-blend-mode:hard-light" opacity="0.8">
<path fill-rule="evenodd" clip-rule="evenodd" d="M1314.54 2784.65C1308.55 2788.94 1292.1 2799.26 1277.88 2794.83C1260.13 2789.29 1249.64 2772.32 1252.59 2762.84C1255.55 2753.35 1273.84 2745.37 1291.59 2750.91C1305.7 2755.31 1313.36 2772.94 1315.9 2779.98C1317.69 2777.34 1321.23 2773.13 1326.1 2772.09C1333.33 2770.53 1340.75 2776.52 1340.75 2776.52C1340.75 2776.52 1336.41 2784.84 1329.18 2786.4C1328.56 2786.53 1327.94 2786.61 1327.33 2786.64C1327.93 2787.14 1328.49 2787.7 1329 2788.32C1333.65 2794.07 1331.65 2803.39 1331.65 2803.39C1331.65 2803.39 1322.27 2803.28 1317.62 2797.53C1314.34 2793.48 1314.29 2787.7 1314.54 2784.65Z" fill="#97D9CD"/>
</g>
<g style="mix-blend-mode:hard-light" opacity="0.7">
<path fill-rule="evenodd" clip-rule="evenodd" d="M989.411 2596.42C986.25 2603.07 976.86 2620.08 962.275 2623.09C944.064 2626.85 926.659 2617.09 924.651 2607.37C922.643 2597.64 934.763 2581.79 952.973 2578.03C967.455 2575.04 982.698 2586.75 988.333 2591.67C988.621 2588.5 989.676 2583.1 993.425 2579.82C998.99 2574.96 1008.39 2576.6 1008.39 2576.6C1008.39 2576.6 1008.62 2585.98 1003.06 2590.85C1002.58 2591.26 1002.08 2591.63 1001.55 2591.96C1002.32 2592.1 1003.09 2592.32 1003.83 2592.62C1010.68 2595.39 1013.46 2604.51 1013.46 2604.51C1013.46 2604.51 1005.2 2608.96 998.346 2606.19C993.509 2604.23 990.665 2599.21 989.411 2596.42Z" fill="#97D9CD"/>
</g>
<g style="mix-blend-mode:hard-light" opacity="0.8">
<path fill-rule="evenodd" clip-rule="evenodd" d="M149.411 2214.42C146.25 2221.07 136.86 2238.08 122.275 2241.09C104.064 2244.85 86.6592 2235.09 84.6508 2225.37C82.6425 2215.64 94.7626 2199.79 112.973 2196.03C127.455 2193.04 142.698 2204.75 148.333 2209.67C148.621 2206.5 149.676 2201.1 153.425 2197.82C158.99 2192.96 168.387 2194.6 168.387 2194.6C168.387 2194.6 168.624 2203.98 163.059 2208.85C162.582 2209.26 162.077 2209.63 161.554 2209.96C162.322 2210.1 163.086 2210.32 163.832 2210.62C170.685 2213.39 173.459 2222.51 173.459 2222.51C173.459 2222.51 165.199 2226.96 158.346 2224.19C153.509 2222.23 150.665 2217.21 149.411 2214.42Z" fill="#97D9CD"/>
</g>
<g style="mix-blend-mode:hard-light" opacity="0.8">
<path fill-rule="evenodd" clip-rule="evenodd" d="M383.281 2391.91C375.934 2392.41 356.509 2392.54 346.745 2381.29C334.555 2367.25 334.543 2347.3 342.044 2340.79C349.545 2334.28 369.297 2337.09 381.487 2351.13C391.181 2362.3 388.43 2381.32 386.897 2388.64C389.805 2387.34 395.026 2385.62 399.718 2387.29C406.684 2389.76 409.848 2398.76 409.848 2398.76C409.848 2398.76 401.786 2403.56 394.821 2401.08C394.224 2400.87 393.654 2400.61 393.111 2400.32C393.364 2401.06 393.551 2401.83 393.653 2402.62C394.591 2409.96 387.989 2416.84 387.989 2416.84C387.989 2416.84 380.071 2411.81 379.133 2404.48C378.471 2399.31 381.464 2394.37 383.281 2391.91Z" fill="#97D9CD"/>
</g>
<g style="mix-blend-mode:hard-light" opacity="0.3">
<path fill-rule="evenodd" clip-rule="evenodd" d="M277.495 2367.66C273.633 2370.26 263.045 2376.49 254.137 2373.43C243.016 2369.61 236.685 2358.7 238.726 2352.76C240.766 2346.82 252.467 2342.1 263.588 2345.92C272.433 2348.95 276.957 2360.24 278.439 2364.73C279.618 2363.09 281.929 2360.5 285.025 2359.92C289.621 2359.07 294.205 2362.99 294.205 2362.99C294.205 2362.99 291.314 2368.17 286.718 2369.02C286.324 2369.1 285.93 2369.14 285.54 2369.15C285.912 2369.47 286.259 2369.83 286.568 2370.24C289.405 2373.95 287.975 2379.81 287.975 2379.81C287.975 2379.81 282.048 2379.57 279.211 2375.86C277.208 2373.23 277.28 2369.58 277.495 2367.66Z" fill="#97D9CD"/>
</g>
<g style="mix-blend-mode:hard-light" opacity="0.5">
<path fill-rule="evenodd" clip-rule="evenodd" d="M1206.7 2703.11C1202.87 2703.63 1192.71 2704.38 1187.21 2698.83C1180.34 2691.9 1179.64 2681.46 1183.34 2677.79C1187.04 2674.12 1197.47 2674.91 1204.34 2681.83C1209.81 2687.34 1209.03 2697.39 1208.48 2701.28C1209.96 2700.5 1212.63 2699.41 1215.14 2700.12C1218.88 2701.17 1220.85 2705.77 1220.85 2705.77C1220.85 2705.77 1216.79 2708.57 1213.06 2707.51C1212.74 2707.42 1212.43 2707.31 1212.14 2707.17C1212.3 2707.55 1212.42 2707.95 1212.5 2708.36C1213.25 2712.17 1210.03 2716 1210.03 2716C1210.03 2716 1205.71 2713.64 1204.97 2709.84C1204.44 2707.15 1205.84 2704.46 1206.7 2703.11Z" fill="#97D9CD"/>
</g>
<g style="mix-blend-mode:hard-light" opacity="0.5">
<path fill-rule="evenodd" clip-rule="evenodd" d="M279.488 2256.98C275.802 2255.82 266.284 2252.18 263.658 2244.82C260.379 2235.64 264.178 2225.88 269.086 2224.13C273.994 2222.38 283.11 2227.52 286.389 2236.71C288.997 2244.02 284.024 2252.79 281.878 2256.08C283.547 2255.99 286.427 2256.15 288.402 2257.86C291.335 2260.4 291.164 2265.4 291.164 2265.4C291.164 2265.4 286.31 2266.2 283.378 2263.67C283.126 2263.45 282.897 2263.21 282.688 2262.97C282.671 2263.37 282.615 2263.79 282.513 2264.2C281.573 2267.96 277.033 2270.06 277.033 2270.06C277.033 2270.06 274.123 2266.1 275.063 2262.33C275.726 2259.68 278.131 2257.84 279.488 2256.98Z" fill="#97D9CD"/>
</g>
<g style="mix-blend-mode:hard-light" opacity="0.9">
<path fill-rule="evenodd" clip-rule="evenodd" d="M1106.74 669.225C1103.88 671.827 1095.94 678.22 1088.26 676.785C1078.67 674.994 1072.16 666.802 1073.12 661.68C1074.07 656.557 1083.11 651.269 1092.69 653.06C1100.32 654.484 1105.4 663.196 1107.16 666.704C1107.93 665.221 1109.51 662.811 1111.98 661.964C1115.65 660.708 1119.88 663.372 1119.88 663.372C1119.88 663.372 1118.14 667.973 1114.47 669.229C1114.16 669.337 1113.84 669.417 1113.52 669.472C1113.86 669.694 1114.19 669.949 1114.49 670.243C1117.27 672.949 1116.8 677.932 1116.8 677.932C1116.8 677.932 1111.91 678.45 1109.13 675.744C1107.17 673.834 1106.79 670.828 1106.74 669.225Z" fill="#97D9CD"/>
</g>
<defs>
<linearGradient id="paint0_linear_16_721" x1="720" y1="0" x2="720" y2="4247" gradientUnits="userSpaceOnUse">
<stop stop-color="#001B48"/>
<stop offset="1" stop-color="#6BB4DD"/>
</linearGradient>
</defs>
</svg>