<svg width="1644" height="150" viewBox="0 0 1644 150" fill="none" xmlns="http://www.w3.org/2000/svg">
<path d="M112.198 150H208.802C218.3 150 226 142.613 226 133.5C226 124.387 218.3 117 208.802 117H112.198C102.7 117 95 124.387 95 133.5C95 142.613 102.7 150 112.198 150Z" fill="#6BB4DD"/>
<path fill-rule="evenodd" clip-rule="evenodd" d="M1444.71 77.6683H422.984C422.458 87.0437 408.837 94.5528 392.111 94.5528H30.8892C13.8296 94.5528 0 86.7414 0 77.1055C0 67.4697 13.8296 59.6583 30.8892 59.6583H131V0H1571V65H1617.74C1632.24 65 1644 72.3873 1644 81.5C1644 90.6127 1632.24 98 1617.74 98H1470.26C1455.76 98 1444 90.6127 1444 81.5C1444 80.1809 1444.25 78.898 1444.71 77.6683Z" fill="#6BB4DD"/>
</svg>